<svg width="21" height="19" viewBox="0 0 21 19" fill="none" xmlns="http://www.w3.org/2000/svg">
<path d="M20.4919 3.89367C20.1661 3.13173 19.6963 2.44126 19.1088 1.86092C18.5208 1.27885 17.8276 0.816288 17.0669 0.498386C16.278 0.167432 15.4319 -0.0019684 14.5777 1.7256e-05C13.3793 1.7256e-05 12.2101 0.331444 11.194 0.957474C10.9509 1.10723 10.72 1.27172 10.5012 1.45093C10.2824 1.27172 10.0515 1.10723 9.80841 0.957474C8.79233 0.331444 7.62309 1.7256e-05 6.42469 1.7256e-05C5.56175 1.7256e-05 4.72554 0.166958 3.93552 0.498386C3.17224 0.817538 2.48431 1.27663 1.89362 1.86092C1.30535 2.4406 0.835424 3.13123 0.510475 3.89367C0.172589 4.68664 0 5.52871 0 6.39533C0 7.21285 0.165297 8.06474 0.493459 8.93137C0.768144 9.65559 1.16194 10.4068 1.66512 11.1654C2.46243 12.3659 3.55874 13.618 4.92001 14.8872C7.17582 16.9912 9.40976 18.4446 9.50456 18.5035L10.0807 18.8766C10.3359 19.0411 10.6641 19.0411 10.9193 18.8766L11.4954 18.5035C11.5902 18.4421 13.8217 16.9912 16.08 14.8872C17.4412 13.618 18.5375 12.3659 19.3349 11.1654C19.838 10.4068 20.2343 9.65559 20.5065 8.93137C20.8347 8.06474 21 7.21285 21 6.39533C21.0024 5.52871 20.8298 4.68664 20.4919 3.89367Z" fill="#FF9100"/>
</svg>
