<svg width="73" height="73" viewBox="0 0 73 73" fill="none" xmlns="http://www.w3.org/2000/svg">
<g filter="url(#filter0_d_2_137)">
<path d="M69 35.5C69 53.4493 54.4493 68 36.5 68C18.5507 68 4 53.4493 4 35.5C4 17.5507 18.5507 3 36.5 3C54.4493 3 69 17.5507 69 35.5Z" fill="white"/>
</g>
<path d="M31 27.8001H51H53V29.8001V39.4001C53 47.6453 45.6208 54 37 54C28.3792 54 21 47.6453 21 39.4001V29.8001V27.8001H23H24.3333V25.6002C24.3333 25.6001 24.3333 25.6001 24.3333 25.6001C24.3333 23.2663 25.1 21.0045 26.5069 19.099C27.9114 17.1967 29.8858 15.7391 32.1603 14.8789C34.4342 14.019 36.9292 13.785 39.3396 14.1993C41.7503 14.6136 43.9964 15.663 45.788 17.2428L47.4549 18.7128L45.8179 20.216L43.9512 21.9301L42.6257 23.1474L41.2758 21.9572C40.4418 21.2218 39.3614 20.7052 38.1616 20.499C36.9616 20.2928 35.723 20.4115 34.6082 20.8331C33.494 21.2545 32.5756 21.9504 31.9459 22.8033C31.3184 23.6532 31 24.6259 31 25.6001V27.8001ZM27.6667 39.4001C27.6667 43.7267 31.6519 47.6 37 47.6C42.3481 47.6 46.3333 43.7267 46.3333 39.4001V34.2001H27.6667V39.4001Z" fill="#4B1EFF" stroke="#4B1EFF" stroke-width="4"/>
<defs>
<filter id="filter0_d_2_137" x="0" y="0" width="73" height="73" filterUnits="userSpaceOnUse" color-interpolation-filters="sRGB">
<feFlood flood-opacity="0" result="BackgroundImageFix"/>
<feColorMatrix in="SourceAlpha" type="matrix" values="0 0 0 0 0 0 0 0 0 0 0 0 0 0 0 0 0 0 127 0" result="hardAlpha"/>
<feOffset dy="1"/>
<feGaussianBlur stdDeviation="2"/>
<feComposite in2="hardAlpha" operator="out"/>
<feColorMatrix type="matrix" values="0 0 0 0 0 0 0 0 0 0 0 0 0 0 0 0 0 0 0.25 0"/>
<feBlend mode="normal" in2="BackgroundImageFix" result="effect1_dropShadow_2_137"/>
<feBlend mode="normal" in="SourceGraphic" in2="effect1_dropShadow_2_137" result="shape"/>
</filter>
</defs>
</svg>
